<svg id="not_found_lg" data-name="not found_lg" xmlns="http://www.w3.org/2000/svg" width="170.227" height="119.062" viewBox="0 0 170.227 119.062">
  <g id="ic_Start_to_add_categories" data-name="ic_Start to add categories">
    <g id="Group_2198" data-name="Group 2198" transform="translate(0)">
      <g id="Group_2196" data-name="Group 2196">
        <g id="Background_Complete" data-name="Background Complete" transform="translate(5.769)">
          <g id="Group_2121" data-name="Group 2121" transform="translate(0 33.237)">
            <g id="Group_2105" data-name="Group 2105" transform="translate(0 0)">
              <path id="Path_1332" data-name="Path 1332" d="M0,0,36.419.11,36.582,53.6.163,53.492Z" transform="matrix(0.831, -0.556, 0.556, 0.831, 0, 20.156)" fill="#f1f3f5"/>
            </g>
            <g id="Group_2108" data-name="Group 2108" transform="translate(29.114 34.718)">
              <g id="Group_2106" data-name="Group 2106" transform="translate(0 5.392)">
                <path id="Path_733" data-name="Path 733" d="M230.791,273.782l-.344,2.116-15.079-2.158.344-2.116Z" transform="translate(-215.368 -271.624)" fill="#e0e0e0"/>
              </g>
              <g id="Group_2107" data-name="Group 2107" transform="translate(5.43)">
                <path id="Path_734" data-name="Path 734" d="M237.854,251.547l2.164.31-2.4,14.749-2.164-.31Z" transform="translate(-235.455 -251.547)" fill="#e0e0e0"/>
              </g>
            </g>
            <g id="Group_2110" data-name="Group 2110" transform="translate(32.655 16.844)">
              <g id="Group_2109" data-name="Group 2109">
                <path id="Path_735" data-name="Path 735" d="M228.466,184.995" transform="translate(-228.466 -184.995)" fill="none" stroke="#fff" stroke-miterlimit="10" stroke-width="1"/>
              </g>
            </g>
            <g id="Group_2112" data-name="Group 2112" transform="translate(9.397 15.971)">
              <g id="Group_2111" data-name="Group 2111">
                <path id="Path_736" data-name="Path 736" d="M156.092,181.744c.022.032-3.018,2.09-6.789,4.6s-6.846,4.511-6.868,4.479,3.018-2.089,6.789-4.6S156.07,181.712,156.092,181.744Z" transform="translate(-142.436 -181.744)" fill="#bfcedc"/>
              </g>
            </g>
            <g id="Group_2114" data-name="Group 2114" transform="translate(11.551 13.189)">
              <g id="Group_2113" data-name="Group 2113">
                <path id="Path_737" data-name="Path 737" d="M173.061,171.386c.022.032-5.033,3.429-11.289,7.585s-11.347,7.5-11.368,7.47,5.032-3.428,11.29-7.586S173.039,171.354,173.061,171.386Z" transform="translate(-150.403 -171.386)" fill="#bfcedc"/>
              </g>
            </g>
            <g id="Group_2116" data-name="Group 2116" transform="translate(13.787 16.511)">
              <g id="Group_2115" data-name="Group 2115">
                <path id="Path_738" data-name="Path 738" d="M181.332,183.752c.022.032-5.033,3.429-11.289,7.586s-11.347,7.5-11.368,7.47,5.032-3.428,11.29-7.586S181.311,183.72,181.332,183.752Z" transform="translate(-158.675 -183.752)" fill="#bfcedc"/>
              </g>
            </g>
            <g id="Group_2118" data-name="Group 2118" transform="translate(16.023 19.832)">
              <g id="Group_2117" data-name="Group 2117">
                <path id="Path_739" data-name="Path 739" d="M189.6,196.119c.022.032-5.033,3.429-11.289,7.585s-11.347,7.5-11.368,7.47,5.032-3.428,11.29-7.586S189.582,196.087,189.6,196.119Z" transform="translate(-166.946 -196.119)" fill="#bfcedc"/>
              </g>
            </g>
            <g id="Group_2120" data-name="Group 2120" transform="translate(18.259 23.153)">
              <g id="Group_2119" data-name="Group 2119">
                <path id="Path_740" data-name="Path 740" d="M197.875,208.485c.022.032-5.033,3.429-11.289,7.585s-11.347,7.5-11.369,7.47,5.032-3.428,11.29-7.586S197.853,208.453,197.875,208.485Z" transform="translate(-175.217 -208.485)" fill="#bfcedc"/>
              </g>
            </g>
          </g>
          <g id="Group_2138" data-name="Group 2138" transform="translate(106.288 63.211)">
            <g id="Group_2122" data-name="Group 2122" transform="translate(0 0)">
              <path id="Path_1333" data-name="Path 1333" d="M0,0,30.586.093l.137,44.924L.137,44.924Z" transform="translate(0 16.927) rotate(-33.777)" fill="#f5f7f9"/>
            </g>
            <g id="Group_2125" data-name="Group 2125" transform="translate(24.819 29.398)">
              <g id="Group_2123" data-name="Group 2123" transform="translate(0.561 0)">
                <path id="Path_741" data-name="Path 741" d="M12.9,1.778,12.6,3.563-.006,1.784.288,0Z" transform="matrix(0.643, 0.766, -0.766, 0.643, 2.768, 0)" fill="#bfcedc"/>
              </g>
              <g id="Group_2124" data-name="Group 2124" transform="translate(0 0.56)">
                <path id="Path_742" data-name="Path 742" d="M2.007-.007,3.816.249,1.769,12.69-.04,12.435Z" transform="matrix(0.643, 0.766, -0.766, 0.643, 9.752, 0)" fill="#bfcedc"/>
              </g>
            </g>
            <g id="Group_2127" data-name="Group 2127" transform="translate(27.424 14.147)">
              <g id="Group_2126" data-name="Group 2126">
                <path id="Path_743" data-name="Path 743" d="M602.285,285.678" transform="translate(-602.285 -285.678)" fill="none" stroke="#fff" stroke-miterlimit="10" stroke-width="1"/>
              </g>
            </g>
            <g id="Group_2129" data-name="Group 2129" transform="translate(7.892 13.413)">
              <g id="Group_2128" data-name="Group 2128">
                <path id="Path_744" data-name="Path 744" d="M541.5,282.947c.022.032-2.528,1.764-5.7,3.869s-5.752,3.785-5.774,3.752,2.528-1.764,5.7-3.869S541.482,282.915,541.5,282.947Z" transform="translate(-530.035 -282.946)" fill="#bfcedc"/>
              </g>
            </g>
            <g id="Group_2131" data-name="Group 2131" transform="translate(9.701 11.077)">
              <g id="Group_2130" data-name="Group 2130">
                <path id="Path_745" data-name="Path 745" d="M555.755,274.248c.021.032-4.221,2.889-9.475,6.38s-9.532,6.3-9.554,6.264,4.22-2.888,9.475-6.381S555.733,274.216,555.755,274.248Z" transform="translate(-536.726 -274.248)" fill="#bfcedc"/>
              </g>
            </g>
            <g id="Group_2133" data-name="Group 2133" transform="translate(11.579 13.866)">
              <g id="Group_2132" data-name="Group 2132">
                <path id="Path_746" data-name="Path 746" d="M562.7,284.634c.022.032-4.221,2.889-9.475,6.38s-9.532,6.3-9.554,6.264,4.22-2.888,9.476-6.38S562.68,284.6,562.7,284.634Z" transform="translate(-543.673 -284.634)" fill="#bfcedc"/>
              </g>
            </g>
            <g id="Group_2135" data-name="Group 2135" transform="translate(13.457 16.655)">
              <g id="Group_2134" data-name="Group 2134">
                <path id="Path_747" data-name="Path 747" d="M569.647,295.019c.022.032-4.221,2.889-9.475,6.38s-9.532,6.3-9.554,6.264,4.22-2.888,9.475-6.38S569.626,294.987,569.647,295.019Z" transform="translate(-550.619 -295.019)" fill="#bfcedc"/>
              </g>
            </g>
            <g id="Group_2137" data-name="Group 2137" transform="translate(15.335 19.445)">
              <g id="Group_2136" data-name="Group 2136">
                <path id="Path_748" data-name="Path 748" d="M576.594,305.405c.022.032-4.221,2.889-9.475,6.38s-9.532,6.3-9.554,6.264,4.22-2.888,9.476-6.38S576.573,305.373,576.594,305.405Z" transform="translate(-557.566 -305.405)" fill="#bfcedc"/>
              </g>
            </g>
          </g>
          <g id="Group_2155" data-name="Group 2155" transform="translate(41.775 19.901)">
            <g id="Group_2139" data-name="Group 2139" transform="translate(0 0)">
              <path id="Path_1334" data-name="Path 1334" d="M0,0,31.475-.086l-.126,46.178-31.475.086Z" transform="matrix(0.882, 0.472, -0.472, 0.882, 21.889, 0)" fill="#f5f7f9"/>
            </g>
            <g id="Group_2142" data-name="Group 2142" transform="translate(12.941 30.031)">
              <g id="Group_2140" data-name="Group 2140" transform="translate(0 0.313)">
                <path id="Path_749" data-name="Path 749" d="M6.176,12.321l-1.759.608L0,.6,1.757-.006Z" transform="matrix(0.643, 0.766, -0.766, 0.643, 9.942, 0)" fill="#bfcedc"/>
              </g>
              <g id="Group_2141" data-name="Group 2141" transform="translate(0.528 0)">
                <path id="Path_750" data-name="Path 750" d="M12.242-.04l.634,1.769L.621,5.966-.014,4.2Z" transform="matrix(0.643, 0.766, -0.766, 0.643, 4.584, 0)" fill="#bfcedc"/>
              </g>
            </g>
            <g id="Group_2144" data-name="Group 2144" transform="translate(37.708 23.375)">
              <g id="Group_2143" data-name="Group 2143">
                <path id="Path_751" data-name="Path 751" d="M401.689,160.379" transform="translate(-401.689 -160.379)" fill="none" stroke="#fff" stroke-miterlimit="10" stroke-width="1"/>
              </g>
            </g>
            <g id="Group_2146" data-name="Group 2146" transform="translate(21.959 9.102)">
              <g id="Group_2145" data-name="Group 2145">
                <path id="Path_752" data-name="Path 752" d="M355.948,113.883c-.022.041-2.841-1.415-6.3-3.251s-6.24-3.357-6.218-3.4,2.84,1.415,6.3,3.251S355.969,113.843,355.948,113.883Z" transform="translate(-343.434 -107.234)" fill="#bfcedc"/>
              </g>
            </g>
            <g id="Group_2148" data-name="Group 2148" transform="translate(20.381 12.034)">
              <g id="Group_2147" data-name="Group 2147">
                <path id="Path_753" data-name="Path 753" d="M358.359,129.183c-.022.04-4.687-2.4-10.42-5.442s-10.364-5.549-10.342-5.589,4.686,2.4,10.421,5.443S358.381,129.142,358.359,129.183Z" transform="translate(-337.597 -118.151)" fill="#bfcedc"/>
              </g>
            </g>
            <g id="Group_2150" data-name="Group 2150" transform="translate(18.743 15.077)">
              <g id="Group_2149" data-name="Group 2149">
                <path id="Path_754" data-name="Path 754" d="M352.3,140.514c-.022.04-4.688-2.4-10.42-5.442s-10.364-5.549-10.342-5.589,4.687,2.4,10.421,5.443S352.32,140.474,352.3,140.514Z" transform="translate(-331.536 -129.482)" fill="#bfcedc"/>
              </g>
            </g>
            <g id="Group_2152" data-name="Group 2152" transform="translate(17.104 18.121)">
              <g id="Group_2151" data-name="Group 2151">
                <path id="Path_755" data-name="Path 755" d="M346.238,151.846c-.022.041-4.687-2.4-10.42-5.442s-10.364-5.549-10.342-5.589,4.686,2.4,10.421,5.443S346.26,151.806,346.238,151.846Z" transform="translate(-325.476 -140.814)" fill="#bfcedc"/>
              </g>
            </g>
            <g id="Group_2154" data-name="Group 2154" transform="translate(15.466 21.164)">
              <g id="Group_2153" data-name="Group 2153">
                <path id="Path_756" data-name="Path 756" d="M340.177,163.178c-.022.041-4.688-2.4-10.42-5.442s-10.364-5.549-10.342-5.589,4.687,2.4,10.421,5.443S340.2,163.138,340.177,163.178Z" transform="translate(-319.415 -152.146)" fill="#bfcedc"/>
              </g>
            </g>
          </g>
          <rect id="Rectangle_864" data-name="Rectangle 864" width="0.698" height="11.812" transform="translate(77.451)" opacity="0.2"/>
        </g>
        <g id="Lamp" transform="translate(67.287)">
          <g id="Group_2158" data-name="Group 2158" transform="translate(0)">
            <g id="Group_2157" data-name="Group 2157" transform="translate(0 11.805)">
              <g id="Group_2156" data-name="Group 2156">
                <path id="Path_757" data-name="Path 757" d="M335.233,58.252H367.8s-3.007-14.3-16.529-14.3C339.241,43.955,335.233,58.252,335.233,58.252Z" transform="translate(-335.233 -43.955)" fill="#4ed9b4"/>
              </g>
            </g>
            <rect id="Rectangle_865" data-name="Rectangle 865" width="0.698" height="11.812" transform="translate(15.933)" fill="#4ed9b4"/>
          </g>
        </g>
        <g id="Floor" transform="translate(0 118.369)">
          <g id="Group_2160" data-name="Group 2160" transform="translate(0 0)">
            <g id="Group_2159" data-name="Group 2159">
              <path id="Path_758" data-name="Path 758" d="M256.561,439.644c0,.042-38.109.077-85.109.077-47.016,0-85.118-.034-85.118-.077s38.1-.076,85.118-.076C218.451,439.568,256.561,439.6,256.561,439.644Z" transform="translate(-86.334 -439.568)" fill="#263238"/>
            </g>
          </g>
        </g>
        <g id="Plant" transform="translate(5.769 101.937)">
          <g id="Group_2170" data-name="Group 2170">
            <g id="Group_2161" data-name="Group 2161" transform="translate(1.869)">
              <path id="Path_759" data-name="Path 759" d="M115.589,377.2a3.416,3.416,0,0,1,2.375,1.208,5.961,5.961,0,0,1,1.209,2.42,10.479,10.479,0,0,1-.311,5.393c-1.85-.657-2.992-2.618-3.508-3.649-.816-1.629-1.294-5.066.235-5.372" transform="translate(-114.589 -377.201)" fill="#4ed9b4"/>
            </g>
            <g id="Group_2162" data-name="Group 2162" transform="translate(8.342 6.209)">
              <path id="Path_760" data-name="Path 760" d="M138.995,405.19a2.872,2.872,0,0,1-.136-2.9,3.857,3.857,0,0,1,2.325-1.857,1.636,1.636,0,0,1,1.368.065,1.232,1.232,0,0,1,.478,1.158,2.5,2.5,0,0,1-.532,1.188,5,5,0,0,1-3.5,2.342" transform="translate(-138.532 -400.32)" fill="#4ed9b4"/>
            </g>
            <g id="Group_2164" data-name="Group 2164" transform="translate(8.469 8.261)">
              <g id="Group_2163" data-name="Group 2163">
                <path id="Path_761" data-name="Path 761" d="M139.542,416.454a2.021,2.021,0,0,1-.083-.353l-.19-.968a10.07,10.07,0,0,1-.2-3.251,6.182,6.182,0,0,1,1.214-3.013,4.243,4.243,0,0,1,.7-.7,2.568,2.568,0,0,1,.22-.157c.052-.034.08-.05.082-.046a6.649,6.649,0,0,0-.933.963,6.385,6.385,0,0,0-1.159,2.975,10.847,10.847,0,0,0,.165,3.218c.066.411.12.744.15.975A1.9,1.9,0,0,1,139.542,416.454Z" transform="translate(-139.003 -407.961)" fill="#263238"/>
              </g>
            </g>
            <g id="Group_2166" data-name="Group 2166" transform="translate(3.465 2.585)">
              <g id="Group_2165" data-name="Group 2165">
                <path id="Path_762" data-name="Path 762" d="M120.492,386.826a.73.73,0,0,1,.074.139l.191.409c.164.357.393.875.672,1.518.557,1.286,1.3,3.074,2.081,5.066s1.441,3.813,1.9,5.136c.231.661.413,1.2.534,1.571l.137.43a.714.714,0,0,1,.039.153.749.749,0,0,1-.064-.145l-.16-.422-.572-1.557c-.483-1.315-1.159-3.129-1.936-5.12s-1.509-3.783-2.045-5.077l-.634-1.534-.168-.419A.727.727,0,0,1,120.492,386.826Z" transform="translate(-120.492 -386.826)" fill="#263238"/>
              </g>
            </g>
            <g id="Group_2167" data-name="Group 2167" transform="translate(0 9.734)">
              <path id="Path_763" data-name="Path 763" d="M114.485,416.71a6.8,6.8,0,0,0-5.278-3.258c-.547-.039-1.205.052-1.449.54a1.394,1.394,0,0,0,.455,1.469,5.837,5.837,0,0,0,6.292,1.4" transform="translate(-107.674 -413.445)" fill="#4ed9b4"/>
            </g>
            <g id="Group_2169" data-name="Group 2169" transform="translate(2.367 11.193)">
              <g id="Group_2168" data-name="Group 2168">
                <path id="Path_764" data-name="Path 764" d="M116.429,418.881a1.8,1.8,0,0,1,.343.013,3.32,3.32,0,0,1,.4.046c.154.029.334.045.524.1a6.061,6.061,0,0,1,.623.172,6.819,6.819,0,0,1,.7.262,7.583,7.583,0,0,1,1.464.863,7.386,7.386,0,0,1,1.211,1.19,6.438,6.438,0,0,1,.426.606,5.39,5.39,0,0,1,.317.561,4.974,4.974,0,0,1,.218.484,3.027,3.027,0,0,1,.136.376,1.748,1.748,0,0,1,.089.329c-.027.01-.159-.46-.523-1.148a5.9,5.9,0,0,0-.326-.545,6.8,6.8,0,0,0-.429-.589,7.67,7.67,0,0,0-1.2-1.162,7.861,7.861,0,0,0-1.435-.857,7.108,7.108,0,0,0-.68-.269c-.215-.082-.423-.133-.611-.185C116.915,418.934,116.426,418.908,116.429,418.881Z" transform="translate(-116.429 -418.876)" fill="#263238"/>
              </g>
            </g>
          </g>
        </g>
        <g id="Folder" transform="translate(23.314 51.187)">
          <g id="Group_2175" data-name="Group 2175">
            <g id="Group_2171" data-name="Group 2171" transform="translate(23.355 9.141)">
              <path id="Path_765" data-name="Path 765" d="M269.779,225.566l-9.559,48.825-1.251,6.392,63.817-.313c2.864-.014,5.4-2.54,6.324-6.294l11.316-46.1c.7-2.849-.835-5.813-3.01-5.811l-64.59.067C271.4,222.339,270.152,223.661,269.779,225.566Z" transform="translate(-258.968 -222.27)" fill="#34c49d"/>
            </g>
            <g id="Group_2173" data-name="Group 2173">
              <path id="Path_767" data-name="Path 767" d="M253.625,246.19,246.869,192.1a4.274,4.274,0,0,0-4.152-3.863l-14.816.048a4.05,4.05,0,0,0-2.927,1.289L217.938,197l-41.206.214a4.363,4.363,0,0,0-4.119,5.04l6.273,49.995a4.274,4.274,0,0,0,4.147,3.86l71.814-.141c8,.165,8.762-2.182,8.762-2.182C254.443,255.806,253.626,246.2,253.625,246.19Z" transform="translate(-172.575 -188.235)" fill="#4ed9b4"/>
            </g>
            <g id="Group_2174" data-name="Group 2174" transform="matrix(0.999, -0.035, 0.035, 0.999, 24.859, 26.378)" opacity="0.748">
              <path id="Path_768" data-name="Path 768" d="M20.945,16.663l-2.422,2.6L-.008,2.594l2.422-2.6Z" transform="matrix(0.643, 0.766, -0.766, 0.643, 14.848, 0.003)" fill="#fff"/>
              <path id="Path_769" data-name="Path 769" d="M16.817-.055l2.659,2.392L2.6,20.467-.059,18.075Z" transform="matrix(0.643, 0.766, -0.766, 0.643, 15.778, 0.214)" fill="#fff"/>
            </g>
          </g>
        </g>
      </g>
    </g>
  </g>
</svg>
