<?xml version="1.0" encoding="utf-8"?>
<!-- Generator: Adobe Illustrator 22.0.1, SVG Export Plug-In . SVG Version: 6.00 Build 0)  -->
<svg version="1.1" id="Layer_1" xmlns="http://www.w3.org/2000/svg" xmlns:xlink="http://www.w3.org/1999/xlink" x="0px" y="0px"
	 viewBox="0 0 414.1 412.8" style="enable-background:new 0 0 414.1 412.8;" xml:space="preserve">
<style type="text/css">
	.st0{fill:#FFD788;}
	.st1{fill:#FFCA4F;}
	.st2{fill:#DFE1E3;}
	.st3{fill:#FFFFFF;}
	.st4{fill:#FF5B61;}
	.st5{fill:#FBB429;}
	.st6{fill:#20D0C2;}
	.st7{fill:#807D7D;}
	.st8{clip-path:url(#SVGID_2_);fill:none;stroke:#FFFFFF;stroke-width:155.576;}
</style>
<circle class="st0" cx="200.3" cy="152.1" r="152.4"/>
<g>
	<path class="st1" d="M206-0.2c113.1,0,204.8,91.7,204.8,204.8c0,113.1-91.7,204.8-204.8,204.8C92.9,409.4,1.2,317.7,1.2,204.6
		C1.2,91.5,92.9-0.2,206-0.2L206-0.2z M206-0.2"/>
	<rect x="11.9" y="78.9" class="st2" width="353.6" height="257.6"/>
	<rect x="1.2" y="69.7" class="st3" width="357.3" height="260.5"/>
	<rect x="11.9" y="69.7" class="st4" width="357.3" height="36.9"/>
	<rect x="274.6" y="125.5" class="st5" width="24.7" height="24.7"/>
	<path class="st6" d="M347.1,17.7c2.5,0.5,4.9,1.1,7.2,1.9l10.8-14.5l16.3,9.4l-7.1,16.6c1.9,1.6,3.6,3.4,5.3,5.3l16.6-7.2l9.4,16.3
		L391,56.3c0.8,2.3,1.4,4.7,1.9,7.2l17.9,2.1v18.8l-17.9,2.1c-0.5,2.5-1.1,4.9-1.9,7.2l14.5,10.8l-9.4,16.3l-16.6-7.1
		c-1.6,1.9-3.4,3.6-5.3,5.3l7.1,16.6l-16.3,9.4l-10.8-14.5c-2.3,0.8-4.7,1.4-7.2,1.9l-2.1,17.9h-18.8l-2.1-17.9
		c-2.5-0.5-4.9-1.1-7.2-1.9l-10.8,14.5l-16.3-9.4l7.1-16.6c-1.9-1.6-3.6-3.4-5.3-5.3l-16.6,7.1l-9.4-16.3l14.5-10.8
		c-0.8-2.3-1.4-4.7-1.9-7.2l-17.9-2.1V65.6l17.9-2.1c0.5-2.5,1.1-4.9,1.9-7.2l-14.5-10.8l9.4-16.3l16.6,7.1c1.6-1.9,3.4-3.6,5.3-5.3
		l-7.1-16.6l16.3-9.4l10.8,14.5c2.3-0.8,4.7-1.4,7.2-1.9l2.1-17.9H345L347.1,17.7L347.1,17.7z M335.6,36.3
		c-21.4,0-38.7,17.4-38.7,38.7c0,21.4,17.3,38.8,38.7,38.8c21.4,0,38.8-17.3,38.8-38.8C374.3,53.6,357,36.3,335.6,36.3L335.6,36.3z
		 M335.6,36.3"/>
	<path class="st3" d="M335.6,27.5c26.2,0,47.5,21.3,47.5,47.5c0,26.2-21.3,47.5-47.5,47.5S288,101.3,288,75
		C288,48.8,309.3,27.5,335.6,27.5L335.6,27.5z M335.6,27.5"/>
	<path class="st7" d="M294.5,73.5h9.8v3.1h-9.8V73.5L294.5,73.5z M376.6,76.6h-9.8v-3.1h9.8V76.6z M334,116.1v-9.8h3.2v9.8H334z
		 M337.1,34v9.8H334V34H337.1z M337.1,34"/>
	<path class="st7" d="M335.5,49.7c1.2,0,2.2,1,2.2,2.2v21.6h21.6c1.2,0,2.2,1,2.2,2.2c0,1.2-1,2.2-2.2,2.2h-23.9v-2.2h-2.2V51.9
		C333.3,50.7,334.3,49.7,335.5,49.7L335.5,49.7z M335.5,49.7"/>
	<path class="st4" d="M335.6,70.7c2.4,0,4.3,1.9,4.3,4.3c0,2.4-1.9,4.3-4.3,4.3c-0.9,0-1.7-0.3-2.4-0.7l-17.5,17.7
		c-0.4,0.4-1,0.4-1.3,0c-0.4-0.4-0.4-1,0-1.3l17.5-17.7c-0.4-0.7-0.7-1.5-0.7-2.3C331.2,72.6,333.2,70.7,335.6,70.7L335.6,70.7z
		 M335.6,70.7"/>
	<rect x="88.8" y="125.5" class="st2" width="24.7" height="24.7"/>
	<g>
		<defs>
			<rect id="SVGID_1_" x="1.2" y="-0.6" width="409.9" height="410.9"/>
		</defs>
		<clipPath id="SVGID_2_">
			<use xlink:href="#SVGID_1_"  style="overflow:visible;"/>
		</clipPath>
		<rect x="88.8" y="125.5" class="st8" width="24.7" height="24.7"/>
	</g>
	<rect x="126" y="125.5" class="st2" width="24.7" height="24.7"/>
	<rect x="163.1" y="125.5" class="st2" width="24.7" height="24.7"/>
	<rect x="200.3" y="125.5" class="st6" width="24.7" height="24.7"/>
	<rect x="237.4" y="125.5" class="st2" width="24.7" height="24.7"/>
	<rect x="51.7" y="125.5" class="st5" width="24.7" height="24.7"/>
	<rect x="88.8" y="164.4" class="st2" width="24.7" height="24.7"/>
	<rect x="126" y="164.4" class="st6" width="24.7" height="24.7"/>
	<rect x="163.1" y="164.4" class="st2" width="24.7" height="24.7"/>
	<rect x="200.3" y="164.4" class="st5" width="24.7" height="24.7"/>
	<rect x="237.4" y="164.4" class="st2" width="24.7" height="24.7"/>
	<rect x="274.6" y="164.4" class="st2" width="24.7" height="24.7"/>
	<rect x="51.7" y="164.4" class="st2" width="24.7" height="24.7"/>
	<rect x="88.8" y="203.2" class="st2" width="24.7" height="24.7"/>
	<rect x="126" y="203.2" class="st2" width="24.7" height="24.7"/>
	<rect x="163.1" y="203.2" class="st2" width="24.7" height="24.7"/>
	<rect x="200.3" y="203.2" class="st2" width="24.7" height="24.7"/>
	<rect x="237.4" y="203.2" class="st2" width="24.7" height="24.7"/>
	<rect x="274.6" y="203.2" class="st5" width="24.7" height="24.7"/>
	<rect x="51.7" y="203.2" class="st5" width="24.7" height="24.7"/>
	<rect x="88.8" y="242.1" class="st6" width="24.7" height="24.7"/>
	<rect x="126" y="242.1" class="st2" width="24.7" height="24.7"/>
	<rect x="163.1" y="242.1" class="st2" width="24.7" height="24.7"/>
	<rect x="200.3" y="242.1" class="st2" width="24.7" height="24.7"/>
	<rect x="237.4" y="242.1" class="st6" width="24.7" height="24.7"/>
	<rect x="274.6" y="242.1" class="st2" width="24.7" height="24.7"/>
	<rect x="51.7" y="242.1" class="st2" width="24.7" height="24.7"/>
	<rect x="88.8" y="279.5" class="st2" width="24.7" height="24.7"/>
	<rect x="51.7" y="279.5" class="st2" width="24.7" height="24.7"/>
	<path class="st3" d="M94.5,252.9c-0.4-0.5-0.3-1.1,0.1-1.5c0.5-0.4,1.1-0.3,1.5,0.1l3.8,4.6l10.5-9.2c0.4-0.4,1.1-0.3,1.5,0.1
		c0.4,0.4,0.3,1.1-0.1,1.5l-11.3,9.9l0,0c-0.5,0.4-1.1,0.3-1.5-0.1L94.5,252.9L94.5,252.9z M94.5,252.9"/>
	<path class="st5" d="M103.2,224.2c7.8,0,14.9,3.2,20.1,8.3c5.1,5.1,8.3,12.2,8.3,20.1c0,7.8-3.2,14.9-8.3,20.1
		c-5.1,5.1-12.2,8.3-20.1,8.3c-7.8,0-14.9-3.2-20.1-8.3c-5.1-5.1-8.3-12.2-8.3-20.1c0-7.8,3.2-14.9,8.3-20.1
		C88.2,227.4,95.4,224.2,103.2,224.2L103.2,224.2z M120.6,235.2c-4.5-4.5-10.6-7.2-17.4-7.2c-6.8,0-13,2.8-17.4,7.2
		c-4.5,4.5-7.2,10.6-7.2,17.4c0,6.8,2.8,13,7.2,17.4c4.5,4.5,10.6,7.2,17.4,7.2c6.8,0,13-2.8,17.4-7.2c4.5-4.5,7.2-10.6,7.2-17.4
		C127.8,245.8,125.1,239.6,120.6,235.2L120.6,235.2z M120.6,235.2"/>
</g>
</svg>
